<svg xmlns="http://www.w3.org/2000/svg" version="1.1" xmlns:xlink="http://www.w3.org/1999/xlink" xmlns:svgjs="http://svgjs.dev/svgjs" width="100%" height="100%" viewBox="0 0 1000 600"><rect width="1000" height="600" x="0" y="0" fill="#334756"/><g><circle r="166.66666666666666" cx="328.6344858805338" cy="350.85671758266534" fill="#ffbf86" transform="matrix(0.7717583667764053,0,0,0.7717583667764053,0,29.223415332717735)"/><path d="M335.98890992606147 425.85673097983795L335.98890992606147 425.85673097983795Q315.8768431770293 425.85673097983795 300.4175679893404 416.2209497463464Q284.95829280165145 406.61518652292807 276.1029798300627 389.44488476106767Q267.2476668584739 372.24456498913423 267.2476668584739 349.7610754443207L267.2476668584739 349.7610754443207Q267.2476668584739 331.1799272090208 273.3113048932567 317.3416245652837Q279.34492491796635 303.5333399316199 289.61108436299475 294.22775680893335Q299.8772438080231 284.9221736862469 312.7549701294183 280.3894541651963Q325.60267844074036 275.8567346441458 339.4409810844774 275.8567346441458L339.4409810844774 275.8567346441458Q353.03913964762904 275.8567346441458 364.2958934250724 278.6784275910249Q375.5226291924426 281.4701025278309 387.40976118142277 287.083470411516L387.40976118142277 287.083470411516Q385.9088606777637 294.6480089499579 385.45859052666594 303.2031418208149Q385.03833838564134 311.72825668159874 385.03833838564134 320.5835696531874L385.03833838564134 320.5835696531874Q382.2166454387622 321.66421801582203 379.63509657246857 322.1144881669197Q377.0535477061749 322.5347403079443 373.5714585376857 322.5347403079443L373.5714585376857 322.5347403079443Q373.15120639666117 307.19553716054816 369.0387390166352 298.9706024004962Q364.9262716366092 290.7756856505174 357.812003249265 287.743866633126Q350.6677168518476 284.7120476157346 341.1520076586488 284.7120476157346L341.1520076586488 284.7120476157346Q327.55384909549724 284.7120476157346 317.8280138317861 289.6950372878828Q308.1021785680751 294.6480089499579 301.9484865030727 302.99301575030256Q295.7647764279971 311.3080045405741 292.8530294508984 321.90436209640745Q289.94128247379973 332.4707016421677 289.94128247379973 343.9375814901233L289.94128247379973 343.9375814901233Q289.94128247379973 363.1791259470332 296.54524468989985 378.8485272052344Q303.1191888959268 394.5179284634355 315.4565910360047 403.58336750553667Q327.7639751660095 412.67882455771087 345.0543489681625 412.67882455771087L345.0543489681625 412.67882455771087Q355.4405804534836 412.67882455771087 366.2470640798293 409.1967353892218Q377.0535477061749 405.7446642308057 386.118986748276 399.92117027660834L386.118986748276 399.92117027660834Q387.40976118142277 401.00181863924297 388.6104815843501 403.0430433242193Q389.7811839772042 405.1142860192689 390.0213280577896 406.61518652292807L390.0213280577896 406.61518652292807Q377.2636737766872 416.55114785715136 364.83621760638965 421.20393941849466Q352.40876143609216 425.85673097983795 335.98890992606147 425.85673097983795Z " fill="#334756" transform="matrix(0.7717583667764053,0,0,0.7717583667764053,0,29.223415332717735)"/><path d="M628.0234266943364 388.588579716436L628.0234266943364 388.588579716436Q613.573391383021 388.588579716436 602.4662746885023 381.6655030971342Q591.3591579939838 374.7639936947148 584.9968290136284 362.42754563789026Q578.6345000332731 350.06953036418315 578.6345000332731 333.9156849191454L578.6345000332731 333.9156849191454Q578.6345000332731 320.56557766884043 582.9910778435502 310.6230906859802Q587.3260884369449 300.70217092000235 594.7020766107806 294.0163336864086Q602.0780647846162 287.3304964528148 611.3304008272347 284.07384670354827Q620.5611696529705 280.8171969542816 630.5036566358309 280.8171969542816L630.5036566358309 280.8171969542816Q640.2736058836307 280.8171969542816 648.3613122145908 282.8445153412423Q656.4274513286686 284.85026651132046 664.9680692141625 288.8833360683592L664.9680692141625 288.8833360683592Q663.8897083700343 294.31827472276444 663.566200116796 300.4649315342941Q663.2642590804402 306.5900211289413 663.2642590804402 312.9523501092966L663.2642590804402 312.9523501092966Q661.2369406934795 313.7287699170688 659.3821600415793 314.0522781703072Q657.5273793896791 314.35421920666306 655.0255822313021 314.35421920666306L655.0255822313021 314.35421920666306Q654.7236411949463 303.3333713796747 651.7689324820354 297.42395395385313Q648.8142237691246 291.53610374491416 643.7027933679578 289.35781483977553Q638.5697957499084 287.1795259346369 631.7329879981368 287.1795259346369L631.7329879981368 287.1795259346369Q621.963038750337 287.1795259346369 614.9752604803874 290.759683937142Q607.9874822104379 294.31827472276444 603.5662027495129 300.3139610161162Q599.1233560717054 306.28808009258546 597.0313360340971 313.9013076521293Q594.9393159964887 321.49296799479055 594.9393159964887 329.7316448439286L594.9393159964887 329.7316448439286Q594.9393159964887 343.5562308656499 599.684103710652 354.81431807834645Q604.4073242079328 366.07240529104297 613.2714503466651 372.5857047895762Q622.1140092685149 379.1205715049921 634.5367261928697 379.1205715049921L634.5367261928697 379.1205715049921Q641.9989832342355 379.1205715049921 649.7631813119573 376.61877434661506Q657.5273793896791 374.13854440512057 664.0406788882123 369.9545043299039L664.0406788882123 369.9545043299039Q664.9680692141625 370.73092413767597 665.8307578894648 372.19749488569016Q666.6718793478847 373.6856328505868 666.8444170829451 374.7639936947148L666.8444170829451 374.7639936947148Q657.6783499078571 381.9027424828423 648.749522118477 385.24566109963916Q639.8206943290969 388.588579716436 628.0234266943364 388.588579716436ZM680.1945243332501 387.6611893904859L680.1945243332501 387.6611893904859Q680.1945243332501 386.10834977494164 680.345494851428 384.31827077368905Q680.496465369606 382.52819177243657 680.9709441410223 380.9753521568922L680.9709441410223 380.9753521568922Q687.1823026031997 380.9753521568922 689.4252931589859 378.1069123115117Q691.6898509316547 375.23847246613116 691.6898509316547 367.4742743884094L691.6898509316547 367.4742743884094L691.6898509316547 297.89843272526946Q691.6898509316547 294.1673042045865 690.9781327745303 291.77334313062227Q690.2879818342883 289.35781483977553 687.8077518927939 288.106916260587Q685.3059547344169 286.8775848982811 680.0435538150722 286.8775848982811L680.0435538150722 286.8775848982811Q680.0435538150722 285.17377476455886 680.345494851428 283.7719056671924Q680.6474358877839 282.37003656982597 681.423855695556 281.11913799063746L681.423855695556 281.11913799063746Q683.7531151188725 281.11913799063746 688.0234240616195 280.34271818286527Q692.2937330043665 279.5662983750931 696.3483697782879 278.33696701278717Q700.3814393353266 277.0860684335987 702.2362199872268 275.85673707129274L702.2362199872268 275.85673707129274Q703.6380890845933 276.3096486258265 704.6517482780736 277.7115177231929Q705.665407471554 279.1133868205593 705.665407471554 282.0680955334701L705.665407471554 282.0680955334701L705.665407471554 367.4742743884094Q705.665407471554 375.23847246613116 707.7574275091623 378.1069123115117Q709.8494475467706 380.9753521568922 714.8099074297595 380.9753521568922L714.8099074297595 380.9753521568922Q715.2843862011758 382.52819177243657 715.4353567193538 384.5555101593973Q715.5863272375317 386.5612613294754 715.5863272375317 387.6611893904859L715.5863272375317 387.6611893904859Q712.9551267778594 387.48865165542543 710.0004180649486 387.4239500047778Q707.0457093520378 387.3376811372475 704.0262989884793 387.27297948659987Q701.0068886249209 387.1867106190696 698.05217991201 387.1867106190696L698.05217991201 387.1867106190696Q695.0974711990993 387.1867106190696 691.9055231004804 387.27297948659987Q688.735142218744 387.3376811372475 685.7804335058332 387.4239500047778Q682.8257247929224 387.48865165542543 680.1945243332501 387.6611893904859ZM755.9601572416849 387.81215990866383L755.9601572416849 387.81215990866383Q745.5647587042907 387.81215990866383 739.6553412784691 381.7517719646644Q733.7674910695301 375.69138402066494 733.7674910695301 360.16298786522145L733.7674910695301 360.16298786522145L733.7674910695301 336.7194231138782Q733.7674910695301 331.284484459473 732.2146514539858 328.5670151322704Q730.6618118384415 325.8495458050678 723.5230630503139 325.6985752868899L723.5230630503139 325.6985752868899Q723.5230630503139 323.9947651531676 723.7387352191396 322.6575977064489Q723.9759746048477 321.3419974766126 724.601423894442 319.9401283792462L724.601423894442 319.9401283792462Q729.410913259253 319.63818734289043 735.0830912993664 318.08534772734606Q740.7552693394797 316.5325081118017 744.3138601251022 314.67772745990146L744.3138601251022 314.67772745990146Q745.7157292224687 315.13063901443525 746.729388415949 316.61877697933187Q747.7430476094294 318.08534772734606 747.7430476094294 321.49296799479055L747.7430476094294 321.49296799479055L747.7430476094294 356.75536759777685Q747.7430476094294 367.150766135171 750.6114874548099 372.7366753077541Q753.4799273001904 378.3441516972199 760.6186760883179 378.3441516972199L760.6186760883179 378.3441516972199Q768.3828741660396 378.3441516972199 773.6021406516193 371.809284981804Q778.7998399203163 365.2959854832708 778.7998399203163 351.77334049790545L778.7998399203163 351.77334049790545L778.7998399203163 335.9430033061061Q778.7998399203163 330.5080646517008 776.8587904008858 327.7905953244982Q774.9177408814554 325.0731259972956 767.1535428037337 324.9221554791177L767.1535428037337 324.9221554791177Q767.1535428037337 323.2183453453954 767.3045133219116 321.8811778986767Q767.4554838400895 320.56557766884043 768.2319036478617 319.1637085714741L768.2319036478617 319.1637085714741Q774.2922915918612 318.86176753511825 780.1154401501525 317.546167305282Q785.9385887084438 316.23056707544583 789.3462089758883 314.67772745990146L789.3462089758883 314.67772745990146Q790.7480780732548 315.13063901443525 791.7617372667352 316.61877697933187Q792.7753964602155 318.08534772734606 792.7753964602155 321.49296799479055L792.7753964602155 321.49296799479055L792.7753964602155 366.52531684557675L780.6546205722165 372.28376375322034Q779.8782007644444 374.2895149232985 778.476331667078 376.2305644427289Q777.096029786594 378.1716139621594 775.3706524359892 379.89699131276416L775.3706524359892 379.89699131276416Q771.3375828789505 383.930060869803 766.8300345504953 385.8711103892334Q762.3440534389227 387.81215990866383 755.9601572416849 387.81215990866383ZM783.7602998033052 388.588579716436L783.7602998033052 388.588579716436Q782.2074601877608 387.81215990866383 781.0428304761026 386.3240219437672Q779.8782007644444 384.85745119575313 779.8782007644444 379.57348305952576L779.8782007644444 379.57348305952576Q779.8782007644444 377.86967292580357 780.1154401501525 374.7639936947148Q780.3526795358606 371.6583144636261 781.4310403799888 366.07240529104297L781.4310403799888 366.07240529104297L792.7753964602155 366.07240529104297Q792.7753964602155 369.6309960766655 793.4008457498097 372.04652436751223Q794.0047278225214 374.46205265835897 796.1183150770123 375.540413502487Q798.2103351146208 376.61877434661506 802.3943751898374 376.61877434661506L802.3943751898374 376.61877434661506Q802.3943751898374 378.1716139621594 802.2434046716595 380.11266348158983Q802.0924341534816 382.05371300102024 801.4669848638873 383.7790903516251L801.4669848638873 383.7790903516251Q797.5848858250265 383.930060869803 792.4518882069771 385.24566109963916Q787.3404578058103 386.5612613294754 783.7602998033052 388.588579716436ZM814.0406723064201 425.8567304895005L814.0406723064201 425.8567304895005Q812.962311462292 425.2312811999062 811.9486522688117 424.1529203557782Q810.9349930753314 423.0529922947676 810.6330520389755 421.5001526792232L810.6330520389755 421.5001526792232Q816.693439982975 414.6633449274516 819.9500897322416 409.16370462239865Q823.2067394815082 403.6424971004632 824.5223397113444 397.7546468915242Q825.8379399411806 391.8452294657027 825.8379399411806 384.23200190615887L825.8379399411806 384.23200190615887L825.8379399411806 336.7194231138782Q825.8379399411806 332.9882945931953 825.1477890009386 330.5943335192311Q824.4576380606967 328.17880522838436 821.9558409023197 326.92790664919585Q819.4756109608253 325.6985752868899 814.1916428245979 325.6985752868899L814.1916428245979 325.6985752868899Q814.1916428245979 323.9947651531676 814.5151510778363 322.59289605580113Q814.8170921141922 321.1910269584347 815.5935119219644 319.9401283792462L815.5935119219644 319.9401283792462Q817.9227713452809 319.9401283792462 822.1930802880279 319.1637085714741Q826.4633892307749 318.3872887637019 830.4964587878136 317.15795740139595Q834.551095561735 315.90705882220743 836.4058762136352 314.67772745990146L836.4058762136352 314.67772745990146Q837.8077453110017 315.13063901443525 838.821404504482 316.5325081118017Q839.8134964810798 317.93437720916813 839.8134964810798 320.88908592207895L839.8134964810798 320.88908592207895L839.8134964810798 382.05371300102024Q839.8134964810798 390.44336036833624 837.5705059252934 397.36643698763817Q835.3275153695072 404.26794639005755 831.5963868488242 409.70288504446273Q827.8652583281413 415.1378236988679 823.2930083490385 419.1708932559068Q818.6991911530531 423.2039628129455 814.0406723064201 425.8567304895005ZM831.5963868488242 297.1220129174973L831.5963868488242 297.1220129174973Q827.7142878099634 297.1220129174973 825.0615201334084 294.490812457825Q822.4303196737361 291.83804478127 822.4303196737361 288.106916260587L822.4303196737361 288.106916260587Q822.4303196737361 283.92287618537034 825.2340578684689 281.2916757256979Q828.0162288463192 278.638908049143 831.5963868488242 278.638908049143L831.5963868488242 278.638908049143Q835.7804269240409 278.638908049143 838.3469257330656 281.2916757256979Q840.9134245420903 283.92287618537034 840.9134245420903 288.106916260587L840.9134245420903 288.106916260587Q840.9134245420903 291.6870742630921 838.1959552148877 294.4045435902947Q835.4784858876851 297.1220129174973 831.5963868488242 297.1220129174973ZM864.3569892934335 341.5289124786892L908.3109773000916 341.5289124786892Q908.3109773000916 344.0091424201837 907.8364985286753 346.7266117473863Q907.362019757259 349.4440810745889 906.283658913131 351.6223699797275L906.283658913131 351.6223699797275Q902.0996188379141 351.6223699797275 896.1902014120927 351.7086388472577Q890.2807839862711 351.77334049790545 883.9184550059158 351.85960936543563Q877.5561260255605 351.9458782329659 871.8192463347995 352.01057988361356Q866.0607994271558 352.09684875114385 861.8767593519391 352.2478192693218L861.8767593519391 352.2478192693218Q861.8767593519391 349.61661880964937 862.566910292181 346.5756412292084Q863.2786284493055 343.5562308656499 864.3569892934335 341.5289124786892L864.3569892934335 341.5289124786892ZM948.8357778224226 321.49296799479055L934.8602212825235 353.9516294030441L934.8602212825235 336.7194231138782Q934.8602212825235 332.9882945931953 934.0838014747513 330.65903516987873Q933.3073816669792 328.3297757465622 930.8271517254847 327.1004443842563Q928.3253545671078 325.8495458050678 923.213924165941 325.6985752868899L923.213924165941 325.6985752868899Q923.213924165941 323.9947651531676 923.5158652022968 322.59289605580113Q923.8393734555351 321.1910269584347 924.6157932633073 319.9401283792462L924.6157932633073 319.9401283792462Q929.4252826281182 319.63818734289043 935.6366410902957 318.08534772734606Q941.8479995524732 316.5325081118017 945.4065903380955 314.67772745990146L945.4065903380955 314.67772745990146Q946.8084594354619 315.13063901443525 947.8221186289423 316.61877697933187Q948.8357778224226 318.08534772734606 948.8357778224226 321.49296799479055L948.8357778224226 321.49296799479055ZM994.7955169991588 340.75249267091704L994.7955169991588 367.4742743884094Q994.7955169991588 375.540413502487 997.0385075549452 378.2578828296896Q999.303065327614 380.9753521568922 1003.9615841742472 380.9753521568922L1003.9615841742472 380.9753521568922Q1004.4144957287808 382.37722125425864 1004.5870334638413 383.930060869803Q1004.7380039820192 385.4829004853474 1004.7380039820192 387.6611893904859L1004.7380039820192 387.6611893904859Q1001.3088164976922 387.3376811372475 996.9738059042976 387.27297948659987Q992.6172280940203 387.1867106190696 987.8077387292094 387.1867106190696L987.8077387292094 387.1867106190696Q984.7020594981207 387.1867106190696 981.2944392306762 387.27297948659987Q977.8652517463489 387.3376811372475 974.8458413827906 387.4239500047778Q971.8048638023495 387.48865165542543 969.324633860855 387.6611893904859L969.324633860855 387.6611893904859Q969.324633860855 385.4829004853474 969.475604379033 383.8437920022727Q969.6481421140935 382.2262507360807 970.1010536686273 380.9753521568922L970.1010536686273 380.9753521568922Q975.6869628412104 380.9753521568922 978.2534616502352 378.1069123115117Q980.8199604592597 375.23847246613116 980.8199604592597 367.4742743884094L980.8199604592597 367.4742743884094L980.8199604592597 343.8581719020058Q980.8199604592597 332.83732407501736 976.786890902221 328.86895616862626Q972.7538213451821 324.9221554791177 966.3699251479444 324.9221554791177L966.3699251479444 324.9221554791177Q962.3368555909055 324.9221554791177 958.3037860338667 327.48865428814236Q954.2707164768279 330.0335858802845 951.5532471496253 335.7057639203979Q948.8357778224226 341.3779419605113 948.8357778224226 350.84595017195534L948.8357778224226 350.84595017195534L948.8357778224226 367.4742743884094Q948.8357778224226 375.23847246613116 951.1650372457392 378.1069123115117Q953.4942966690556 380.9753521568922 959.5546846130552 380.9753521568922L959.5546846130552 380.9753521568922Q960.007596167589 382.37722125425864 960.1585666857669 383.930060869803Q960.3311044208273 385.4829004853474 960.3311044208273 387.6611893904859L960.3311044208273 387.6611893904859Q958.1528155156888 387.48865165542543 955.0471362846001 387.4239500047778Q951.9414570535114 387.3376811372475 948.5122695691842 387.27297948659987Q945.1046493017396 387.1867106190696 941.8479995524732 387.1867106190696L941.8479995524732 387.1867106190696Q938.7423203213845 387.1867106190696 935.3131328370573 387.27297948659987Q931.9055125696127 387.3376811372475 928.7998333385241 387.4239500047778Q925.6941541074353 387.48865165542543 923.3648946841189 387.6611893904859L923.3648946841189 387.6611893904859Q923.3648946841189 385.4829004853474 923.5158652022968 383.8437920022727Q923.6668357204748 382.2262507360807 924.141314491891 380.9753521568922L924.141314491891 380.9753521568922Q930.2017024358905 380.9753521568922 932.530961859207 378.1069123115117Q934.8602212825235 375.23847246613116 934.8602212825235 367.4742743884094L934.8602212825235 367.4742743884094L934.8602212825235 336.7194231138782L948.8357778224226 321.49296799479055Q948.8357778224226 323.3693158635733 948.6848073042448 325.6985752868899Q948.5122695691842 328.02783471020643 947.7358497614122 330.65903516987873L947.7358497614122 330.65903516987873Q948.2103285328284 329.88261536210655 948.6848073042448 328.86895616862626Q949.1377188587786 327.8768641920285 950.0651091847286 326.62596561284L950.0651091847286 326.62596561284Q952.7178768612836 323.0458076103349 958.5410254195748 319.2499774390043Q964.3641739778662 315.45414726767365 972.5812836101217 315.45414726767365L972.5812836101217 315.45414726767365Q978.4907010359433 315.45414726767365 983.5374297864624 317.84810834163784Q988.5841585369816 320.2636366324846 991.6898377680701 325.7632769375375Q994.7955169991588 331.284484459473 994.7955169991588 340.75249267091704L994.7955169991588 340.75249267091704ZM1049.446844579567 388.588579716436L1049.446844579567 388.588579716436Q1038.4259967525786 388.588579716436 1031.1362774462732 383.6065526165646Q1023.8249909230852 378.64609273357576 1020.1801312699325 370.191743715612Q1016.5352716167798 361.7158274807658 1016.5352716167798 351.6223699797275L1016.5352716167798 351.6223699797275Q1016.5352716167798 341.67988299686715 1020.4173706556408 333.3118028464337Q1024.2994696945016 324.9221554791177 1031.5244873501592 319.78915786106825Q1038.7495050058174 314.67772745990146 1048.6704247717948 314.67772745990146L1048.6704247717948 314.67772745990146Q1058.7638822728331 314.67772745990146 1064.9105390843629 319.0127380532962Q1071.0356286790102 323.3693158635733 1074.0766062594512 330.65903516987873Q1077.0960166230093 337.9703216930667 1077.721465912604 346.8128806149165L1077.721465912604 346.8128806149165Q1077.0960166230093 349.9185598460052 1075.3922064892872 352.09684875114385L1075.3922064892872 352.09684875114385Q1072.7394388127323 352.09684875114385 1067.4770378933877 352.09684875114385Q1062.1930697571602 352.09684875114385 1055.5072325235665 352.1615504017915Q1048.8429625068552 352.2478192693218 1041.8551842369056 352.4850586550299Q1034.867405966956 352.7222980407381 1028.656047504779 353.02423907709385L1028.656047504779 353.02423907709385L1028.656047504779 345.1090704811942L1061.567620467566 345.1090704811942Q1061.567620467566 334.86464246197806 1057.8364919468831 328.4807462647401Q1054.1053634262003 322.1184172843848 1047.290122891311 322.1184172843848L1047.290122891311 322.1184172843848Q1043.5589943706282 322.1184172843848 1039.9788363681232 324.3829750570537Q1036.4202455825007 326.62596561284 1034.090986159184 332.2981436529534Q1031.7617267358673 337.9703216930667 1031.7617267358673 348.36572023046085L1031.7617267358673 348.36572023046085Q1031.7617267358673 355.97894779000467 1033.702776255298 363.20396544566245Q1035.6438257747282 370.40741588443757 1040.5180167901872 375.15220359860086Q1045.4137750225282 379.89699131276416 1054.4288716794385 379.89699131276416L1054.4288716794385 379.89699131276416Q1059.5403020806052 379.89699131276416 1064.5223291804768 377.5677318894477Q1069.4827890634656 375.23847246613116 1073.3648881023264 370.8818946558539L1073.3648881023264 370.8818946558539Q1074.6157866815151 371.50734394544827 1075.7804163931733 372.97391469346235Q1076.9450461048318 374.46205265835897 1077.0960166230093 375.69138402066494L1077.0960166230093 375.69138402066494Q1071.8120484867823 382.6791622906145 1064.9105390843629 385.6338710035253Q1057.987462465061 388.588579716436 1049.446844579567 388.588579716436ZM1116.2189480479742 388.588579716436L1116.2189480479742 388.588579716436Q1107.0744480897683 388.588579716436 1102.6316014119611 383.8437920022727Q1098.2103219510363 379.1205715049921 1098.2103219510363 368.55263523253745L1098.2103219510363 368.55263523253745L1098.2103219510363 326.47499509466206Q1095.8810625277197 325.6985752868899 1093.400832586225 325.1593948648258Q1090.920602644731 324.5986472258793 1087.0385036058697 324.44767670770136L1087.0385036058697 324.44767670770136Q1087.0385036058697 322.4419255376232 1087.3404446422255 320.9537875727266Q1087.6639528954643 319.4872168247125 1088.4403727032363 317.61086895592973L1088.4403727032363 317.61086895592973L1098.2103219510363 317.61086895592973L1098.2103219510363 297.1220129174973Q1101.316001182125 296.3455931097251 1104.356978762566 294.6417829760029Q1107.3763891261246 292.9379728422806 1109.7056485494409 290.9106544553199L1109.7056485494409 290.9106544553199Q1111.258488164985 291.53610374491416 1111.7329669364017 292.7654351072201Q1112.1858784909355 294.0163336864086 1112.1858784909355 298.9767935693975L1112.1858784909355 298.9767935693975L1112.1858784909355 317.61086895592973L1132.372793493012 317.61086895592973Q1132.372793493012 319.1637085714741 1132.0708524566562 320.9537875727266Q1131.7473442034175 322.74386657397906 1130.9709243956454 324.44767670770136L1130.9709243956454 324.44767670770136Q1125.385015223062 324.5986472258793 1120.7264963764292 325.1593948648258Q1116.0679775297963 325.6985752868899 1112.1858784909355 326.47499509466206L1112.1858784909355 326.47499509466206L1112.1858784909355 365.2959854832708Q1112.1858784909355 370.40741588443757 1113.2858065519458 373.7503345012344Q1114.3641673960738 377.0932531180314 1116.3914857830346 378.64609273357576Q1118.397236953113 380.19893234912 1121.2009751478454 380.19893234912L1121.2009751478454 380.19893234912Q1124.457624897112 380.19893234912 1126.873153187959 379.2715420231699Q1129.2671142619233 378.3441516972199 1131.4454031670616 376.4678038284371L1131.4454031670616 376.4678038284371Q1133.4727215540224 378.79706325175357 1133.7746625903783 381.60080144648646L1133.7746625903783 381.60080144648646Q1131.2944326488837 384.5555101593973 1126.2477038983648 386.5612613294754Q1121.2009751478454 388.588579716436 1116.2189480479742 388.588579716436Z " fill="#ffbf86" transform="matrix(0.7717583667764053,0,0,0.7717583667764053,0,29.223415332717735)"/></g></svg>